# xmcd
#
# Track frame offsets: 
#        150
#        15016
#        33296
#        52752
#        71373
#        90805
#        111357
#        123775
#        145045
#        157239
#        177084
#        197507
#
# Disc length: 2931 seconds
#
# Revision: 0
# Processed by: cddbd v1.4PL0 Copyright (c) Steve Scherf et al.
# Submitted via: ExactAudioCopy v0.90a11
#
DISCID=840b710c
DTITLE=The $1000 Playboys - The $1000 Playboys
DYEAR=1900
DGENRE=
TTITLE0=You Don't Know Me
TTITLE1=Preacher
TTITLE2=Road To Nowhere
TTITLE3=Lonely Nights
TTITLE4=Flying High, Fading Low
TTITLE5=The Rope
TTITLE6=What Can I do?
TTITLE7=End Of The Line
TTITLE8=Rosie
TTITLE9=Jesus
TTITLE10=Smoke
TTITLE11=Summer Is Almost Here
EXTD=
EXTT0=
EXTT1=
EXTT2=
EXTT3=
EXTT4=
EXTT5=
EXTT6=
EXTT7=
EXTT8=
EXTT9=
EXTT10=
EXTT11=
PLAYORDER=
